<?xml version="1.0" standalone="no"?>
<!DOCTYPE svg PUBLIC "-//W3C//DTD SVG 20010904//EN"
 "http://www.w3.org/TR/2001/REC-SVG-20010904/DTD/svg10.dtd">
<svg version="1.0" xmlns="http://www.w3.org/2000/svg"
 width="640.000000pt" height="640.000000pt" viewBox="0 0 640.000000 640.000000"
 preserveAspectRatio="xMidYMid meet">
<metadata>
Created by potrace 1.11, written by Peter Selinger 2001-2013
</metadata>
<g transform="translate(0.000000,640.000000) scale(0.100000,-0.100000)"
fill="#000000" stroke="none">
<path d="M1567 5694 c-1 -1 -22 -4 -47 -7 -220 -28 -414 -222 -446 -445 -9
-58 -9 -2966 -1 -3007 26 -129 64 -202 152 -290 74 -75 132 -110 230 -141 58
-18 128 -19 2265 -18 1213 0 2221 3 2241 6 44 7 112 30 120 41 3 5 9 8 13 8
17 -3 26 0 38 12 7 6 33 25 57 42 89 60 174 193 199 310 18 81 15 2991 -2
3070 -44 197 -182 341 -381 401 -57 17 -180 18 -2248 18 -1204 1 -2189 0
-2190 0z m862 -549 c201 -42 368 -215 406 -420 53 -285 -151 -578 -432 -622
-239 -37 -462 78 -569 293 -43 86 -49 118 -49 249 0 104 5 124 58 232 100 207
346 319 586 268z m2256 -414 c17 -10 249 -237 518 -506 l487 -488 0 -618 c0
-341 -3 -620 -7 -620 -42 -8 -3896 -2 -3901 5 -3 5 -5 125 -4 267 l0 258 304
303 c167 167 314 311 326 322 26 23 97 37 111 23 6 -6 11 -7 11 -3 0 18 75
-51 278 -255 117 -117 214 -210 217 -208 2 2 343 342 757 756 414 413 767 759
783 767 40 21 83 20 120 -3z"/>
<path d="M453 4624 c-4 -1 -35 -10 -68 -19 -183 -53 -334 -215 -374 -400 -7
-34 -10 -520 -11 -1535 0 -1452 1 -1488 20 -1557 57 -207 216 -351 425 -386
79 -14 4351 -16 4440 -2 28 4 58 11 68 16 9 6 17 8 17 5 0 -8 70 26 120 58
123 78 221 231 237 371 7 61 10 226 5 242 -2 8 -478 11 -1900 11 -1043 0
-1917 3 -1942 7 -25 3 -61 10 -80 15 -19 5 -48 11 -63 14 -16 3 -35 10 -43 17
-8 6 -14 9 -14 6 0 -12 -158 73 -215 115 -148 110 -241 236 -315 423 -19 47
-41 157 -45 225 -2 25 -4 571 -4 1213 l-1 1168 -124 -3 c-69 -1 -128 -3 -133
-4z"/>
</g>
</svg>
